<svg xmlns="http://www.w3.org/2000/svg" fill="none" viewBox="2.65 8.4 71.71 60.21">
<path d="M72.1318 27.5228L68.0941 24.9842V15.6864C68.0877 13.7501 67.3139 11.8954 65.9422 10.5287C64.5706 9.16196 62.713 8.39486 60.7767 8.39551H30.0489C28.1158 8.39742 26.2624 9.16618 24.8955 10.5331C23.5286 11.9 22.7598 13.7534 22.7579 15.6864V22.3445H16.2105C14.2746 22.3477 12.4189 23.1182 11.0501 24.487C9.68117 25.8559 8.91073 27.7116 8.90755 29.6475V38.938L4.87227 41.4574C3.47664 42.3309 2.64648 43.8324 2.64648 45.4734C2.64648 47.1145 3.47905 48.6184 4.87227 49.4894L8.90755 52.0112V61.2993C8.91073 63.2352 9.68117 65.0909 11.0501 66.4598C12.4189 67.8287 14.2746 68.5991 16.2105 68.6023H46.9335C48.8694 68.5991 50.7251 67.8287 52.094 66.4598C53.4629 65.0909 54.2333 63.2352 54.2365 61.2993V54.646H60.7767C62.713 54.6467 64.5706 53.8796 65.9422 52.5129C67.3139 51.1462 68.0877 49.2914 68.0941 47.3551V38.0646L72.1294 35.5476C73.5322 34.6693 74.3648 33.1558 74.3551 31.5003C74.3553 30.7026 74.151 29.9182 73.7617 29.2218C73.3725 28.5255 72.8113 27.9406 72.1318 27.5228ZM49.9028 61.3017C49.9028 62.9404 48.5698 64.271 46.9335 64.271H16.2105C15.423 64.2704 14.6678 63.9574 14.1107 63.4008C13.5536 62.8441 13.2401 62.0893 13.2388 61.3017V50.8129C13.2391 50.4453 13.1459 50.0836 12.9678 49.762C12.7897 49.4403 12.5327 49.1693 12.221 48.9745L7.16542 45.8151C7.03869 45.7381 6.97533 45.6242 6.97533 45.4734C6.97533 45.2472 7.03789 45.2111 7.16542 45.1317L12.2185 41.9723C12.53 41.7777 12.7867 41.5071 12.9648 41.1859C13.1429 40.8647 13.2363 40.5036 13.2364 40.1364V29.6451C13.2364 28.0064 14.5695 26.6734 16.2081 26.6734H46.9311C48.5698 26.6734 49.9004 28.0064 49.9004 29.6451L49.9028 61.3017ZM69.8314 31.8733L64.7783 35.0255C64.4661 35.22 64.2086 35.4909 64.0301 35.8125C63.8516 36.1342 63.7579 36.496 63.758 36.8638V47.3551C63.758 48.9865 62.4201 50.3124 60.7743 50.3124H54.2365V29.6475C54.2333 27.7116 53.4629 25.8559 52.094 24.487C50.7251 23.1182 48.8694 22.3477 46.9335 22.3445H27.0892V15.6864C27.0892 14.055 28.4174 12.7268 30.0489 12.7268H60.7767C62.4249 12.7268 63.7604 14.055 63.7604 15.6864V26.1777C63.7604 26.9236 64.143 27.6142 64.7759 28.0113L69.8482 31.1995C69.9029 31.2328 69.9477 31.2799 69.9781 31.3361C70.0086 31.3924 70.0235 31.4557 70.0215 31.5196C70.0254 31.5903 70.0097 31.6608 69.9762 31.7232C69.9427 31.7856 69.8926 31.8375 69.8314 31.8733Z" fill="#38BDF8"/>
<path d="M33.244 33.1896C31.5975 32.8237 29.876 33.0157 28.3505 33.7353C26.825 34.4549 25.5821 35.6614 24.8173 37.1647C24.2813 38.2202 24.0042 39.3882 24.0088 40.572C24.0088 41.1463 24.237 41.6972 24.6431 42.1033C25.0493 42.5094 25.6001 42.7376 26.1745 42.7376C26.7488 42.7376 27.2997 42.5094 27.7058 42.1033C28.1119 41.6972 28.3401 41.1463 28.3401 40.572C28.3401 40.0586 28.4556 39.5742 28.6866 39.1186C29.0154 38.4686 29.5531 37.948 30.2133 37.6403C30.8736 37.3326 31.6181 37.2558 32.3273 37.4222C33.4943 37.6749 34.4544 38.6253 34.7167 39.7899C34.8921 40.5007 34.8215 41.2499 34.5165 41.9155C34.2115 42.581 33.69 43.1236 33.0371 43.4547C30.7993 44.6 29.4085 46.8162 29.4085 49.2393C29.4085 49.8137 29.6366 50.3645 30.0428 50.7706C30.4489 51.1768 30.9997 51.4049 31.5741 51.4049C32.1485 51.4049 32.6993 51.1768 33.1054 50.7706C33.5116 50.3645 33.7397 49.8137 33.7397 49.2393C33.7397 48.45 34.2258 47.7113 35.0054 47.3119C36.5117 46.5388 37.7169 45.2852 38.43 43.7496C39.1431 42.214 39.3233 40.4843 38.942 38.8347C38.6232 37.4513 37.9186 36.1866 36.9101 35.1874C35.9015 34.1882 34.6304 33.4955 33.244 33.1896ZM33.1093 54.2371C32.8035 53.9394 32.4175 53.7375 31.9985 53.6563C31.5796 53.5751 31.146 53.618 30.7512 53.7799C30.4865 53.8761 30.2458 54.0446 30.0293 54.2371C29.8368 54.4536 29.6924 54.6919 29.5721 54.9589C29.4518 55.1996 29.4037 55.4883 29.4037 55.7771C29.4093 56.3499 29.6392 56.8977 30.044 57.303C30.4489 57.7083 30.9965 57.9388 31.5693 57.9451C31.858 57.9451 32.1468 57.8946 32.4115 57.7767C32.5318 57.7285 32.6521 57.6564 32.7724 57.5842C32.8927 57.512 33.013 57.4157 33.1093 57.2954C33.3018 57.1029 33.4702 56.8623 33.5665 56.5976C33.6868 56.3353 33.7349 56.0682 33.7349 55.7795C33.7349 55.4907 33.6868 55.202 33.5665 54.9614C33.4638 54.6919 33.3084 54.4457 33.1093 54.2371Z" fill="#17B4F9"/>
</svg>