<svg xmlns="http://www.w3.org/2000/svg" fill="none" viewBox="0 0 48 59">
<g clip-path="url(#clip0_123_303)">
<path d="M1.14286 1.8097e-06C0.839753 1.8097e-06 0.549063 0.119542 0.334735 0.332323C0.120408 0.545105 0 0.833698 0 1.13462V57.8654C0 58.1663 0.120408 58.4549 0.334735 58.6677C0.549063 58.8805 0.839753 59 1.14286 59H46.8571C47.1602 59 47.4509 58.8805 47.6653 58.6677C47.8796 58.4549 48 58.1663 48 57.8654V12.4808C48.0003 12.3317 47.9709 12.184 47.9137 12.0461C47.8564 11.9083 47.7724 11.783 47.6663 11.6775L36.2377 0.331309C36.1314 0.226013 36.0052 0.142555 35.8664 0.0857069C35.7275 0.0288589 35.5788 -0.000264478 35.4286 1.8097e-06H1.14286ZM2.28571 2.26923H34.2857V12.4808C34.2857 12.7817 34.4061 13.0703 34.6204 13.2831C34.8348 13.4958 35.1255 13.6154 35.4286 13.6154H45.7143V56.7308H2.28571V2.26923ZM36.5714 3.87358L44.0983 11.3462H36.5714V3.87358ZM6.85714 18.1538V20.4231H41.1429V18.1538H6.85714ZM6.85714 24.9615V27.2308H41.1429V24.9615H6.85714ZM6.85714 31.7692V34.0385H41.1429V31.7692H6.85714ZM6.85714 38.5769V40.8462H41.1429V38.5769H6.85714ZM6.85714 45.3846V47.6538H41.1429V45.3846H6.85714Z" fill="url(#paint0_linear_123_303)"/>
</g>
<defs>
<linearGradient id="paint0_linear_123_303" x1="0" y1="29.5" x2="34.2857" y2="29.5" gradientUnits="userSpaceOnUse">
<stop stop-color="#920400"/>
<stop offset="1" stop-color="#F4504B"/>
</linearGradient>
<clipPath id="clip0_123_303">
<rect width="48" height="59" fill="white"/>
</clipPath>
</defs>
</svg>